<svg width="19" height="18" viewBox="0 0 19 18" fill="none" xmlns="http://www.w3.org/2000/svg">
<path fill-rule="evenodd" clip-rule="evenodd" d="M9.58945 0.0441895C4.65306 0.0441895 0.651337 4.0459 0.651337 8.98226C0.651337 13.9186 4.65306 17.9203 9.58945 17.9203C14.5258 17.9203 18.5276 13.9186 18.5276 8.98226C18.5276 4.0459 14.5258 0.0441895 9.58945 0.0441895ZM7.62422 4.24409C8.1327 4.22095 8.29518 4.21529 9.58983 4.21529H9.58834C10.8834 4.21529 11.0453 4.22095 11.5538 4.24409C12.0612 4.26733 12.4078 4.34767 12.7117 4.46556C13.0256 4.58721 13.2907 4.75009 13.5559 5.01525C13.8211 5.28022 13.9839 5.54618 14.1061 5.85971C14.2233 6.16281 14.3037 6.50922 14.3276 7.01671C14.3504 7.52519 14.3564 7.68766 14.3564 8.98231C14.3564 10.277 14.3504 10.439 14.3276 10.9475C14.3037 11.4548 14.2233 11.8013 14.1061 12.1045C13.9839 12.4179 13.8211 12.6839 13.5559 12.9489C13.291 13.214 13.0255 13.3773 12.712 13.4991C12.4087 13.6169 12.0619 13.6973 11.5544 13.7205C11.046 13.7437 10.884 13.7493 9.58923 13.7493C8.29468 13.7493 8.13231 13.7437 7.62382 13.7205C7.11643 13.6973 6.76993 13.6169 6.46662 13.4991C6.15329 13.3773 5.88733 13.214 5.62246 12.9489C5.35739 12.6839 5.19452 12.4179 5.07266 12.1044C4.95488 11.8013 4.87453 11.4549 4.85119 10.9474C4.82815 10.4389 4.82239 10.277 4.82239 8.98231C4.82239 7.68766 4.82835 7.52509 4.85109 7.01661C4.87394 6.50932 4.95438 6.16281 5.07256 5.85961C5.19472 5.54618 5.35759 5.28022 5.62276 5.01525C5.88773 4.75019 6.15369 4.58731 6.46722 4.46556C6.77032 4.34767 7.11673 4.26733 7.62422 4.24409Z" fill="#fff"/>
<path fill-rule="evenodd" clip-rule="evenodd" d="M9.16222 5.07434C9.24526 5.07421 9.33459 5.07425 9.43098 5.0743L9.58986 5.07434C10.8627 5.07434 11.0135 5.07891 11.5161 5.10175C11.9809 5.12301 12.2332 5.20067 12.4012 5.26592C12.6237 5.35232 12.7823 5.4556 12.949 5.62245C13.1159 5.7893 13.2192 5.9482 13.3058 6.17066C13.371 6.3385 13.4488 6.59075 13.4699 7.05554C13.4928 7.55806 13.4977 7.70902 13.4977 8.98121C13.4977 10.2534 13.4928 10.4044 13.4699 10.9069C13.4487 11.3717 13.371 11.6239 13.3058 11.7918C13.2194 12.0142 13.1159 12.1726 12.949 12.3394C12.7822 12.5062 12.6238 12.6095 12.4012 12.6959C12.2334 12.7615 11.9809 12.8389 11.5161 12.8602C11.0136 12.883 10.8627 12.888 9.58986 12.888C8.31697 12.888 8.16611 12.883 7.66358 12.8602C7.1988 12.8387 6.94654 12.7611 6.7784 12.6958C6.55594 12.6094 6.39704 12.5061 6.23019 12.3393C6.06335 12.1724 5.96006 12.0139 5.87346 11.7914C5.80821 11.6235 5.73045 11.3713 5.7093 10.9065C5.68645 10.404 5.68188 10.253 5.68188 8.98002C5.68188 7.70703 5.68645 7.55687 5.7093 7.05434C5.73055 6.58956 5.80821 6.3373 5.87346 6.16927C5.95986 5.94681 6.06335 5.78791 6.23019 5.62106C6.39704 5.45421 6.55594 5.35093 6.7784 5.26433C6.94644 5.19878 7.1988 5.12132 7.66358 5.09997C8.10334 5.0801 8.27376 5.07414 9.16222 5.07315V5.07434ZM12.1346 5.86585C11.8188 5.86585 11.5625 6.12178 11.5625 6.43769C11.5625 6.75351 11.8188 7.00974 12.1346 7.00974C12.4504 7.00974 12.7066 6.75351 12.7066 6.43769C12.7066 6.12188 12.4504 5.86565 12.1346 5.86565V5.86585ZM7.14172 8.98228C7.14172 7.63037 8.23778 6.53427 9.58969 6.53422C10.9416 6.53422 12.0375 7.63034 12.0375 8.98228C12.0375 10.3342 10.9417 11.4298 9.58979 11.4298C8.23784 11.4298 7.14172 10.3342 7.14172 8.98228Z" fill="#fff"/>
<path d="M9.58996 7.39328C10.4675 7.39328 11.179 8.10466 11.179 8.98229C11.179 9.85982 10.4675 10.5713 9.58996 10.5713C8.71233 10.5713 8.00095 9.85982 8.00095 8.98229C8.00095 8.10466 8.71233 7.39328 9.58996 7.39328Z" fill="#fff"/>
</svg>
