<svg width="60" height="60" viewBox="0 0 60 60" fill="none" xmlns="http://www.w3.org/2000/svg">
<g clip-path="url(#clip0)">
<path d="M30.7489 19.3833V0H28.9868V19.442C29.3686 19.4126 29.7504 19.3833 30.1322 19.3833C30.3377 19.3539 30.5433 19.3833 30.7489 19.3833Z" fill="black"/>
<path d="M40.8811 30.7489H60V28.9868H40.8517C40.8811 29.3685 40.9104 29.7503 40.9104 30.1321C40.9104 30.3377 40.9104 30.5433 40.8811 30.7489Z" fill="black"/>
<path d="M29.1336 40.8517C29.163 41.1747 29.2218 41.4684 29.2511 41.7621C29.3392 42.4082 29.4567 42.9956 29.4567 44.2584C29.4567 45.5213 29.3686 46.1087 29.2511 46.7548C29.1336 47.4302 29.0162 48.1351 29.0162 49.5154C29.0162 50.8957 29.1336 51.6006 29.2511 52.2761C29.3392 52.9222 29.4567 53.5095 29.4567 54.7724C29.4567 56.0352 29.3686 56.6226 29.2511 57.2687C29.1336 57.9442 29.0162 58.649 29.0162 60.0294H30.7783C30.7783 58.7959 30.8664 58.1791 30.9839 57.533C31.1013 56.8575 31.2188 56.1527 31.2188 54.7724C31.2188 53.3921 31.1013 52.6872 30.9839 52.0117C30.8958 51.3656 30.7783 50.7783 30.7783 49.5154C30.7783 48.2819 30.8664 47.6652 30.9839 47.0191C31.1013 46.3436 31.2188 45.6388 31.2188 44.2584C31.2188 42.8781 31.1013 42.1733 30.9839 41.4978C30.9545 41.2922 30.9251 41.0866 30.8958 40.8811C30.6314 40.9104 30.3671 40.9104 30.1028 40.9104C29.8091 40.9104 29.4567 40.8811 29.1336 40.8517Z" fill="black"/>
<path d="M19.4126 29.2511H0V31.0132H19.4126C19.3833 30.7195 19.3833 30.4258 19.3833 30.1322C19.3539 29.8385 19.3833 29.5448 19.4126 29.2511Z" fill="black"/>
<path d="M38.1204 22.9075L51.7181 9.30987L50.4846 8.07639L36.8282 21.7328C37.2981 22.0852 37.7386 22.467 38.1204 22.9075Z" fill="black"/>
<path d="M37.1512 38.2966C37.3862 38.4728 37.5624 38.6491 37.768 38.7959C38.2673 39.2071 38.7665 39.5889 39.6476 40.4699C40.5286 41.351 40.9104 41.8502 41.3216 42.3495C41.7327 42.8781 42.1733 43.4361 43.1424 44.3759C44.1116 45.3451 44.6402 45.7856 45.1689 46.1968C45.6681 46.6079 46.1674 46.9897 47.0485 47.8708C47.9295 48.7518 48.3113 49.2511 48.7225 49.7504C49.1336 50.279 49.5742 50.8076 50.5433 51.7768L51.7768 50.5433C50.8957 49.6623 50.514 49.163 50.1028 48.6637C49.6916 48.1351 49.2511 47.6065 48.2819 46.6373C47.3128 45.6681 46.7841 45.2276 46.2555 44.8165C45.7562 44.4053 45.257 44.0235 44.3759 43.1424C43.4949 42.2614 43.0837 41.7621 42.7019 41.2629C42.2907 40.7342 41.8502 40.2056 40.8811 39.2364C39.9119 38.2673 39.3833 37.8267 38.8546 37.4156C38.7078 37.2981 38.5316 37.1806 38.3847 37.0338C38.0029 37.5037 37.5918 37.9148 37.1512 38.2966Z" fill="black"/>
<path d="M21.8796 37.0632L8.25256 50.6902L9.48604 51.9237L23.1131 38.2967C22.6725 37.9149 22.2614 37.5037 21.8796 37.0632Z" fill="black"/>
<path d="M23.0544 22.0264L9.30987 8.25256L8.07639 9.48604L21.8502 23.2599C22.2027 22.8194 22.6138 22.4082 23.0544 22.0264Z" fill="black"/>
<path d="M34.8018 19.2364C34.9486 18.5903 35.0661 18.003 35.5066 16.8282C35.9472 15.6535 36.2408 15.1248 36.5639 14.5668C36.8869 13.9795 37.2394 13.3627 37.7093 12.0705C38.1792 10.7783 38.326 10.1028 38.4729 9.42733C38.6197 8.78122 38.7372 8.19385 39.1777 7.0191C39.6182 5.84436 39.9119 5.31573 40.235 4.75772C40.558 4.17035 40.9104 3.55361 41.3803 2.26139L39.7357 1.64465C39.2952 2.8194 39.0015 3.34803 38.6784 3.90603C38.3554 4.49341 38.003 5.11014 37.5331 6.40236C37.0632 7.69458 36.9163 8.39943 36.7695 9.04553C36.6226 9.69164 36.5052 10.279 36.0646 11.4538C35.6241 12.6285 35.3304 13.1571 35.0074 13.7151C34.6843 14.3025 34.3319 14.9193 33.862 16.2115C33.3921 17.5037 33.2452 18.2085 33.0984 18.8546C33.0397 19.119 32.9809 19.3833 32.8928 19.7063C33.4802 19.8532 34.0382 20.0588 34.5668 20.2937C34.6549 19.9119 34.743 19.5595 34.8018 19.2364Z" fill="black"/>
<path d="M57.8267 41.2041L58.4435 39.5595L40.558 32.8634C40.4112 33.4508 40.2056 33.9794 39.9706 34.5374L57.8267 41.2041Z" fill="black"/>
<path d="M18.7959 57.8267L20.4405 58.4435L27.1659 40.4699C26.6079 40.2937 26.0499 40.0881 25.5213 39.8531L18.7959 57.8267Z" fill="black"/>
<path d="M19.2365 25.1983C18.5904 25.0514 18.003 24.9339 16.8282 24.4934C15.6535 24.0529 15.1249 23.7592 14.5669 23.4361C13.9795 23.1131 13.3627 22.7607 12.0705 22.2908C10.7783 21.8209 10.1028 21.674 9.42736 21.5272C8.78125 21.3803 8.19388 21.2629 7.01913 20.8223C5.84439 20.3818 5.31576 20.0881 4.75775 19.7651C4.17038 19.442 3.55364 19.0896 2.26142 18.6197L1.64468 20.2643C2.81943 20.7049 3.34806 20.9985 3.90606 21.3216C4.49344 21.6447 5.11018 21.9971 6.40239 22.467C7.69461 22.9369 8.39946 23.0837 9.04557 23.2306C9.69167 23.3774 10.279 23.4949 11.4538 23.9354C12.6285 24.3759 13.1572 24.6696 13.7152 24.9927C14.3025 25.3157 14.9193 25.6681 16.2115 26.138C17.5037 26.6079 18.2086 26.7548 18.8547 26.9016C19.1484 26.9604 19.442 27.0191 19.7651 27.1072C19.9413 26.5492 20.1469 25.9912 20.3818 25.4626C19.9707 25.3451 19.5889 25.257 19.2365 25.1983Z" fill="black"/>
<path d="M40.9986 25.7856C41.5566 25.4332 42.0558 25.1101 43.2012 24.5815C44.3466 24.0529 44.9339 23.906 45.5507 23.7004C46.1968 23.5242 46.8723 23.3186 48.1351 22.7313C49.398 22.1733 49.9853 21.7915 50.5433 21.4097C51.1013 21.0573 51.6006 20.7342 52.746 20.2056C53.8914 19.6769 54.4787 19.5301 55.0955 19.3245C55.7416 19.1483 56.417 18.9427 57.6799 18.3554L56.9457 16.7401C55.8003 17.2687 55.2129 17.4156 54.5962 17.6211C53.9501 17.7974 53.2746 18.0029 52.0118 18.5903C50.7489 19.1483 50.1615 19.5301 49.6035 19.9119C49.0455 20.2643 48.5463 20.5874 47.4009 21.116C46.2555 21.6446 45.6682 21.7915 45.0514 21.9971C44.4053 22.1733 43.7298 22.3788 42.467 22.9662C41.2041 23.5242 40.6168 23.906 40.0588 24.2878C39.8532 24.4053 39.677 24.5521 39.442 24.6696C39.7357 25.1689 40 25.6975 40.2056 26.2555C40.4993 26.1087 40.7636 25.9618 40.9986 25.7856Z" fill="black"/>
<path d="M41.7328 57.5918L43.348 56.8576L35.4479 39.4714C34.9486 39.7651 34.42 40 33.862 40.2056L41.7328 57.5918Z" fill="black"/>
<path d="M19.0014 34.185C18.4434 34.5374 17.9442 34.8605 16.7988 35.3891C15.6534 35.9178 15.0661 36.0646 14.4493 36.2702C13.8032 36.4464 13.1277 36.652 11.8649 37.2393C10.602 37.7974 10.0147 38.1791 9.45666 38.5609C8.89866 38.9134 8.39939 39.2364 7.25402 39.765C6.10865 40.2937 5.52127 40.4405 4.90453 40.6461C4.25843 40.8223 3.58295 41.0279 2.3201 41.6153L3.05431 43.2305C4.19969 42.7019 4.78706 42.5551 5.4038 42.3495C6.04991 42.1733 6.72539 41.9677 7.98823 41.3803C9.25108 40.8223 9.83845 40.4405 10.3965 40.0587C10.9545 39.7063 11.4537 39.3833 12.5991 38.8546C13.7445 38.326 14.3318 38.1791 14.9486 37.9736C15.5947 37.7974 16.2702 37.5918 17.533 37.0044C18.7959 36.4464 19.3832 36.0646 19.9412 35.6828C20.1762 35.536 20.3818 35.3891 20.6461 35.2423C20.3524 34.7137 20.1175 34.185 19.9412 33.627C19.5595 33.8326 19.2658 34.0088 19.0014 34.185Z" fill="black"/>
<path d="M18.2379 2.37885L16.6226 3.11306L24.699 20.8223C25.1982 20.5286 25.7269 20.2643 26.2849 20.0587L18.2379 2.37885Z" fill="black"/>
</g>
<defs>
<clipPath id="clip0">
<rect width="60" height="60" fill="white"/>
</clipPath>
</defs>
</svg>
