<svg width="118" height="36" viewBox="0 0 118 36" fill="none" xmlns="http://www.w3.org/2000/svg">
<path d="M0 9.58938C0 3.82301 3.64038 0 9.05427 0C11.1389 0 13.1302 0.700885 14.5926 1.27434L16.6462 0L16.6462 11.6283C12.3524 3.2177 10.61 1.87965 7.87192 1.87965C5.56946 1.87965 3.95152 3.50442 3.95152 6.14867C3.95152 9.20708 7.74747 11.5009 11.17 14.3044C14.7482 17.2673 18.0463 19.9115 18.0463 26.2832C18.0463 32.5912 13.7214 35.9681 9.1165 35.9681C6.93849 35.9681 4.44935 35.4584 2.08466 34.0885L0 36L0 23.0336C2.3958 28.3858 6.31621 33.5469 10.1744 33.5469C12.3524 33.5469 14.157 31.8584 14.157 28.8956C14.157 25.7416 12.0724 24.308 8.61867 21.6C5.78726 19.4655 0 15.515 0 9.58938Z" fill="black"/>
<path d="M33.4479 35.8407H23.8024L25.856 34.1204L25.856 1.87966L23.8024 0.159302L33.479 0.159302L31.4254 1.87966L31.4254 34.1204L33.4479 35.8407Z" fill="black"/>
<path d="M76.2301 24.531L73.0564 23.4478C70.7228 31.0301 63.8777 36 56.1302 36C46.2048 36 38.644 27.8442 38.644 18.0637C38.644 8.02832 46.7648 0 56.2236 0C64.2822 0 71.2518 5.54336 73.3053 13.6035H70.225C69.9761 7.64602 65.8379 3.75929 60.0195 3.75929C51.0897 3.75929 42.2844 12.8389 42.2844 21.9504C42.2844 28.0035 46.4537 32.3681 52.3343 32.3681C58.4016 32.3681 64.0955 28.5451 67.6114 22.9381H63.1932V20.708L76.2301 20.708V24.531Z" fill="black"/>
<path d="M88.1468 33.5151H91.445L93.6852 28.4177V35.8726H80.5861L82.5774 34.1522V1.87966L80.5861 0.159302L90.356 0.159302L88.178 1.87966V33.5151H88.1468Z" fill="black"/>
<path d="M110.051 0.159302L115.216 34.1204L117.27 35.8407H107.5L109.585 34.1204L108.682 28.1628H103.299L102.397 34.1204L104.295 35.8407H98.259L100.157 34.1204L104.98 1.87966L104.482 0.159302L110.051 0.159302ZM103.642 25.8053H108.371L105.944 9.78054L103.642 25.8053Z" fill="black"/>
</svg>
